<?xml version="1.0" standalone="no"?>
<svg xmlns="http://www.w3.org/2000/svg" viewBox="0 0 126.922 36" width="126.922" height="36"><g fill="#ff8686" color="#ff8686" transform="translate(0 6) scale(0.2671416)"><svg width="73.87" height="89.84" x="0.0" y="0.0" viewBox="0 0 73.87 89.84"><title></title><path d="M42.77,20.29a7.66,7.66,0,1,0-3.32-.16V47.62l9.78,12.62v33a1.66,1.66,0,1,0,3.32,0V59.11L42.77,46.48V20.29Zm-5.69-7.55a4.4,4.4,0,1,1,4.4,4.4A4.41,4.41,0,0,1,37.08,12.74Zm-8.69,25a7.68,7.68,0,1,0-3.81,6.62L41.12,64.6V93.26a1.66,1.66,0,0,0,3.32,0V63.41L27,42.12A7.62,7.62,0,0,0,28.39,37.76Zm-12.07,0a4.4,4.4,0,1,1,4.4,4.4A4.41,4.41,0,0,1,16.33,37.76Zm70.61,2.51a7.67,7.67,0,1,0-9.32,7.48V63.82L65.82,75.75V93.26a1.66,1.66,0,1,0,3.32,0V77.11L80.93,65.19V47.75A7.66,7.66,0,0,0,86.94,40.27Zm-7.58,4.4H79.19A4.4,4.4,0,1,1,79.36,44.66ZM67,32.6a7.67,7.67,0,1,0-9.31,7.49,1.63,1.63,0,0,0,0,.18v53a1.66,1.66,0,0,0,3.32,0v-53a1.63,1.63,0,0,0,0-.18A7.66,7.66,0,0,0,67,32.6ZM59.37,37a4.4,4.4,0,1,1,4.4-4.4A4.41,4.41,0,0,1,59.37,37Z" transform="translate(-13.06 -5.08)"></path></svg></g><path fill="#fe0b01" fill-rule="nonzero" d="M0 22.25L0 2.24L3.04 2.24Q3.61 2.24 4.29 2.29Q4.98 2.34 5.67 2.54Q6.35 2.73 6.99 3.13Q7.63 3.53 8.12 4.21Q8.61 4.90 8.91 5.93Q9.21 6.96 9.21 8.44L9.21 8.44L9.21 9.14Q9.21 10.75 8.94 11.89Q8.66 13.03 8.20 13.81Q7.75 14.59 7.14 15.06Q6.54 15.53 5.89 15.77Q5.24 16.01 4.58 16.08Q3.91 16.16 3.33 16.16L3.33 16.16L3.04 16.16L3.04 22.25L0 22.25ZM3.04 13.93L3.19 13.93Q4.01 13.93 4.57 13.69Q5.13 13.45 5.47 12.94Q5.80 12.43 5.95 11.63Q6.09 10.83 6.09 9.70L6.09 9.70L6.09 7.90Q6.09 7.01 5.96 6.36Q5.84 5.71 5.50 5.29Q5.17 4.86 4.61 4.66Q4.04 4.45 3.19 4.45L3.19 4.45L3.04 4.45L3.04 13.93ZM15.39 22.43L15.39 22.43Q14.87 22.43 14.34 22.35Q13.80 22.27 13.31 22.01Q12.81 21.75 12.37 21.27Q11.93 20.79 11.60 20.00Q11.27 19.22 11.09 18.07Q10.90 16.92 10.90 15.33L10.90 15.33L10.90 12.80Q10.90 11.23 11.09 10.11Q11.29 8.99 11.62 8.23Q11.95 7.46 12.40 7.01Q12.84 6.56 13.34 6.32Q13.84 6.08 14.37 6.01Q14.89 5.93 15.40 5.93L15.40 5.93Q15.88 5.93 16.39 6Q16.91 6.07 17.40 6.30Q17.89 6.53 18.33 6.98Q18.77 7.43 19.11 8.19Q19.44 8.95 19.63 10.08Q19.83 11.21 19.83 12.80L19.83 12.80L19.83 15.33Q19.83 16.90 19.63 18.04Q19.43 19.17 19.09 19.96Q18.75 20.74 18.30 21.23Q17.86 21.71 17.37 21.98Q16.88 22.25 16.37 22.34Q15.86 22.43 15.39 22.43ZM15.41 20.14L15.41 20.14Q15.81 20.14 16.08 19.94Q16.36 19.73 16.53 19.27Q16.70 18.80 16.78 18.03Q16.85 17.26 16.85 16.13L16.85 16.13L16.85 12.15Q16.85 11.02 16.78 10.24Q16.70 9.47 16.53 8.99Q16.36 8.52 16.08 8.31Q15.81 8.10 15.41 8.10L15.41 8.10Q14.99 8.10 14.70 8.31Q14.41 8.52 14.23 8.99Q14.04 9.47 13.96 10.24Q13.88 11.02 13.88 12.15L13.88 12.15L13.88 16.13Q13.88 17.26 13.96 18.03Q14.04 18.80 14.23 19.27Q14.41 19.73 14.70 19.94Q14.99 20.14 15.41 20.14ZM22.45 22.25L22.45 6.12L24.62 6.12L24.88 7.76Q25.37 6.84 26.01 6.39Q26.65 5.93 27.32 5.93L27.32 5.93Q28.59 5.93 29.20 6.71Q29.81 7.50 29.81 9.07L29.81 9.07Q29.81 9.27 29.78 9.54Q29.75 9.82 29.70 10.12Q29.65 10.42 29.57 10.72Q29.50 11.02 29.41 11.26L29.41 11.26L27.35 11.26L27.35 9.76Q27.35 9.27 27.29 8.95Q27.22 8.64 27.12 8.44Q27.01 8.25 26.87 8.17Q26.73 8.10 26.57 8.10L26.57 8.10Q26.21 8.10 25.92 8.33Q25.62 8.55 25.42 8.96L25.42 8.96L25.42 22.25L22.45 22.25ZM32.03 18.23L32.03 8.23L30.77 8.23L30.77 6.12L32.29 6.12L32.88 1.93L34.99 1.93L34.99 6.12L37.57 6.12L37.57 8.23L34.99 8.23L34.99 18.49Q34.99 19.02 35.09 19.34Q35.19 19.66 35.37 19.85Q35.54 20.03 35.78 20.09Q36.01 20.14 36.27 20.14L36.27 20.14Q36.70 20.14 37.04 20.04Q37.37 19.93 37.68 19.75L37.68 19.75L37.68 21.39Q37.42 21.70 37.12 21.90Q36.82 22.10 36.50 22.22Q36.19 22.35 35.86 22.39Q35.53 22.44 35.21 22.44L35.21 22.44Q34.59 22.44 34.02 22.28Q33.45 22.11 33 21.65Q32.55 21.19 32.29 20.37Q32.03 19.55 32.03 18.23L32.03 18.23ZM41.82 22.43L41.82 22.43Q41.07 22.43 40.49 22.13Q39.91 21.83 39.52 21.32Q39.12 20.80 38.91 20.09Q38.71 19.38 38.71 18.55L38.71 18.55Q38.71 17.55 38.95 16.78Q39.20 16.01 39.67 15.39Q40.15 14.77 40.85 14.26Q41.55 13.75 42.48 13.29L42.48 13.29Q42.93 13.07 43.48 12.84Q44.04 12.61 44.47 12.45L44.47 12.45L44.47 10.31Q44.47 9.84 44.44 9.44Q44.40 9.04 44.27 8.74Q44.13 8.44 43.86 8.27Q43.59 8.10 43.13 8.10L43.13 8.10Q42.81 8.10 42.51 8.21Q42.21 8.33 41.98 8.61Q41.75 8.89 41.62 9.36Q41.48 9.83 41.48 10.52L41.48 10.52L41.48 11.23L39.22 11.23Q39.12 10.77 39.06 10.39Q39.01 10.01 39.01 9.63L39.01 9.63Q39.01 8.73 39.32 8.04Q39.63 7.35 40.19 6.88Q40.75 6.41 41.52 6.17Q42.29 5.93 43.22 5.93L43.22 5.93Q44.43 5.93 45.22 6.19Q46.02 6.46 46.49 6.98Q46.97 7.51 47.16 8.31Q47.36 9.11 47.36 10.17L47.36 10.17L47.36 22.25L45.15 22.25L44.94 20.87Q44.46 21.56 43.66 22.00Q42.86 22.43 41.82 22.43ZM43.14 20.14L43.14 20.14Q43.51 20.14 43.87 19.95Q44.23 19.76 44.47 19.48L44.47 19.48L44.47 14.43Q44.24 14.52 43.95 14.65Q43.65 14.78 43.31 14.99L43.31 14.99Q43.00 15.19 42.69 15.47Q42.39 15.75 42.15 16.14Q41.91 16.52 41.76 17.01Q41.61 17.50 41.61 18.09L41.61 18.09Q41.61 19.02 41.98 19.58Q42.34 20.14 43.14 20.14ZM54.93 22.43L54.93 22.43Q54.46 22.43 53.91 22.35Q53.37 22.28 52.82 22.03Q52.28 21.79 51.78 21.33Q51.28 20.88 50.90 20.14Q50.52 19.41 50.29 18.32Q50.06 17.24 50.06 15.74L50.06 15.74L50.06 8.65Q50.06 7.14 50.30 6.06Q50.53 4.99 50.92 4.26Q51.30 3.53 51.81 3.09Q52.31 2.66 52.85 2.43Q53.39 2.20 53.92 2.13Q54.46 2.06 54.91 2.06L54.91 2.06Q56.11 2.06 56.91 2.40Q57.71 2.73 58.20 3.31Q58.69 3.89 58.89 4.66Q59.10 5.44 59.10 6.30L59.10 6.30Q59.10 6.95 59.03 7.49Q58.97 8.04 58.84 8.70L58.84 8.70L56.38 8.70L56.38 7.68Q56.38 6.02 56.02 5.20Q55.65 4.38 54.95 4.38L54.95 4.38Q54.53 4.38 54.21 4.55Q53.89 4.71 53.68 5.10Q53.47 5.50 53.36 6.14Q53.25 6.79 53.25 7.75L53.25 7.75L53.25 16.89Q53.25 17.82 53.34 18.45Q53.43 19.07 53.63 19.44Q53.82 19.82 54.15 19.97Q54.47 20.13 54.93 20.13L54.93 20.13Q55.22 20.13 55.49 20.00Q55.76 19.86 55.96 19.58Q56.17 19.29 56.29 18.85Q56.41 18.41 56.41 17.81L56.41 17.81L56.41 15.86L59.19 15.86L59.19 17.71Q59.19 20.12 58.09 21.27Q56.99 22.42 54.93 22.43ZM61.39 22.25L61.39 0.94L64.36 0.94L64.36 4.73L64.21 7.50Q64.54 7.04 64.92 6.74Q65.30 6.45 65.70 6.26Q66.11 6.08 66.52 6.01Q66.94 5.93 67.35 5.93L67.35 5.93Q68.77 5.93 69.53 6.92Q70.30 7.91 70.30 9.89L70.30 9.89L70.30 22.25L67.34 22.25L67.34 10.00Q67.34 8.93 67.01 8.51Q66.68 8.10 66.05 8.10L66.05 8.10Q65.60 8.10 65.15 8.40Q64.70 8.70 64.36 9.22L64.36 9.22L64.36 22.25L61.39 22.25ZM75.60 22.43L75.60 22.43Q74.85 22.43 74.27 22.13Q73.69 21.83 73.29 21.32Q72.89 20.80 72.69 20.09Q72.48 19.38 72.48 18.55L72.48 18.55Q72.48 17.55 72.73 16.78Q72.97 16.01 73.45 15.39Q73.92 14.77 74.63 14.26Q75.33 13.75 76.25 13.29L76.25 13.29Q76.70 13.07 77.26 12.84Q77.81 12.61 78.25 12.45L78.25 12.45L78.25 10.31Q78.25 9.84 78.21 9.44Q78.18 9.04 78.04 8.74Q77.91 8.44 77.64 8.27Q77.37 8.10 76.90 8.10L76.90 8.10Q76.58 8.10 76.28 8.21Q75.98 8.33 75.76 8.61Q75.53 8.89 75.39 9.36Q75.26 9.83 75.26 10.52L75.26 10.52L75.26 11.23L73.00 11.23Q72.89 10.77 72.84 10.39Q72.79 10.01 72.79 9.63L72.79 9.63Q72.79 8.73 73.10 8.04Q73.41 7.35 73.96 6.88Q74.52 6.41 75.29 6.17Q76.07 5.93 76.99 5.93L76.99 5.93Q78.20 5.93 79.00 6.19Q79.79 6.46 80.27 6.98Q80.74 7.51 80.94 8.31Q81.13 9.11 81.13 10.17L81.13 10.17L81.13 22.25L78.93 22.25L78.71 20.87Q78.23 21.56 77.43 22.00Q76.63 22.43 75.60 22.43ZM76.91 20.14L76.91 20.14Q77.29 20.14 77.64 19.95Q78 19.76 78.25 19.48L78.25 19.48L78.25 14.43Q78.01 14.52 77.72 14.65Q77.43 14.78 77.09 14.99L77.09 14.99Q76.77 15.19 76.46 15.47Q76.16 15.75 75.92 16.14Q75.68 16.52 75.53 17.01Q75.39 17.50 75.39 18.09L75.39 18.09Q75.39 19.02 75.75 19.58Q76.11 20.14 76.91 20.14ZM85.78 3.81L85.78 3.81Q84.96 3.81 84.49 3.32Q84.01 2.82 84.01 1.88L84.01 1.88Q84.01 1.35 84.13 0.99Q84.26 0.63 84.49 0.42Q84.71 0.20 85.04 0.10Q85.37 0 85.79 0L85.79 0Q86.67 0 87.13 0.45Q87.59 0.89 87.59 1.88L87.59 1.88Q87.59 2.79 87.12 3.30Q86.66 3.81 85.78 3.81ZM84.25 22.25L84.25 6.12L87.21 6.12L87.21 22.25L84.25 22.25ZM90.30 22.25L90.30 6.12L92.59 6.12L92.86 7.84L92.86 7.85Q93.21 7.30 93.62 6.93Q94.02 6.56 94.45 6.34Q94.89 6.12 95.34 6.02Q95.79 5.93 96.23 5.93L96.23 5.93Q97.65 5.93 98.42 6.92Q99.19 7.91 99.19 9.89L99.19 9.89L99.19 22.25L96.22 22.25L96.22 10.00Q96.22 8.93 95.89 8.51Q95.57 8.10 94.93 8.10L94.93 8.10Q94.49 8.10 94.05 8.39Q93.61 8.68 93.27 9.20L93.27 9.20L93.27 22.25L90.30 22.25Z" transform="translate(27.734, 6.874)"></path></svg>